<svg xmlns="http://www.w3.org/2000/svg" width="325.473" height="307.184" viewBox="0 0 325.473 307.184">
  <g id="Group_66" data-name="Group 66" transform="translate(-1192.181 -411.816)">
    <g id="Group_65" data-name="Group 65" transform="translate(1192.181 411.816)">
      <path id="Path_12" data-name="Path 12" d="M197.564,465.164,460.878,656.473M214.149,445.747,329.221,560.819M233.566,429.162l95.655,131.657m-73.882-145,73.882,145M278.933,406.047l50.288,154.772M303.763,400.085l25.459,160.734m0-162.737,0,162.737,25.457-160.734M329.221,560.819,379.51,406.047m23.592,9.772-73.88,145m95.654-131.657L329.221,560.819m0,0L444.294,445.747m16.585,19.417L197.564,656.473M184.221,634.7l290-147.762M174.449,611.108,483.992,510.529m5.962,24.831L168.487,586.276m323.47-25.457H166.484m323.47,25.457L168.487,535.361m315.5,75.747L174.449,510.529m9.772-23.592,290,147.762M197.564,465.164,460.878,656.473M214.149,445.747,329.221,560.819V398.082" transform="translate(-166.484 -398.082)" fill="none" stroke="#fff" stroke-miterlimit="10" stroke-width="2"/>
    </g>
    <circle id="Ellipse_31" data-name="Ellipse 31" cx="144" cy="144" r="144" transform="translate(1211 431)" fill="#dfedf7"/>
  </g>
</svg>
